<svg xmlns="http://www.w3.org/2000/svg" xmlns:xlink="http://www.w3.org/1999/xlink" width="165" height="68" viewBox="0 0 165 68">
  <defs>
    <clipPath id="clip-Artboard_1">
      <rect width="165" height="68"/>
    </clipPath>
  </defs>
  <g id="Artboard_1" data-name="Artboard – 1" clip-path="url(#clip-Artboard_1)">
    <rect width="165" height="68" fill="rgba(255,255,255,0)"/>
    <g id="Group_2" data-name="Group 2" transform="translate(-31.689 -27)">
      <text id="hc" transform="translate(113 72)" fill="#f283a5" font-size="49" font-family="YuGothicUI-Bold, Yu Gothic UI" font-weight="700"><tspan x="0" y="0">HC</tspan></text>
      <line id="logo-line" y2="51" transform="translate(112.5 37.5)" fill="none" stroke="#d84d85" stroke-width="2"/>
      <g id="icons8-itch-io_1_" data-name="icons8-itch-io (1)" transform="translate(46.685 30.423)">
        <path id="Path_2" data-name="Path 2" d="M60.311,19.487c0,3.186-2.585,6.739-5.766,6.739,1.326,8.644.817,18.666.384,24.037a5.8,5.8,0,0,1-4.267,5.1,78.144,78.144,0,0,1-38.384-.01A5.785,5.785,0,0,1,8.02,50.243a112.754,112.754,0,0,1,.394-24.018,4.317,4.317,0,0,1-3.635-6.739L12.363,8H50.6Z" fill="#85cbf8"/>
        <path id="Path_3" data-name="Path 3" d="M31.662,59.007A78.97,78.97,0,0,1,11.6,56.556a6.889,6.889,0,0,1-5.121-6.018A112.138,112.138,0,0,1,6.84,26.523a1.116,1.116,0,0,1-.045-.3c0-1.919,7.435-9.226,13-9.226H51.2c4,0,5.788,3.614,5.787,7.195a4.93,4.93,0,0,1-.491,2.484c1.282,8.659.76,18.639.326,23.877a6.894,6.894,0,0,1-5.131,6.011A79.089,79.089,0,0,1,31.662,59.007ZM8.85,26.22a1.1,1.1,0,0,1-.006.242,109.442,109.442,0,0,0-.4,23.9,4.834,4.834,0,0,0,3.66,4.258,81.261,81.261,0,0,0,39.086.01,4.9,4.9,0,0,0,3.67-4.246c.433-5.251.961-15.345-.388-23.912a1.008,1.008,0,0,1,.224-.807.99.99,0,0,1,.181-.167,7.4,7.4,0,0,0-.707-4.81A3.2,3.2,0,0,0,51.2,19H19.8C15.383,19,9.808,24.627,8.85,26.22Z" transform="translate(0 -0.246)" fill="#8d6c9f"/>
        <path id="Path_4" data-name="Path 4" d="M3,20c0,3.862,2.6,7,5.8,7s5.8-3.138,5.8-7" transform="translate(0 -0.071)" fill="#ed7899"/>
        <path id="Path_5" data-name="Path 5" d="M14.6,20c0,3.866,2.6,7,5.8,7s5.8-3.134,5.8-7" transform="translate(-0.179 -0.071)" fill="#f7a1c8"/>
        <path id="Path_6" data-name="Path 6" d="M26.2,20c0,3.866,2.6,7,5.8,7s5.8-3.134,5.8-7" transform="translate(-0.345 -0.071)" fill="#ed7899"/>
        <path id="Path_7" data-name="Path 7" d="M37.8,20c0,3.866,2.6,7,5.8,7s5.8-3.134,5.8-7" transform="translate(-0.51 -0.071)" fill="#f7a1c8"/>
        <path id="Path_8" data-name="Path 8" d="M49.4,20c0,3.862,2.6,7,5.8,7S61,23.862,61,20" transform="translate(-0.689 -0.071)" fill="#ed7899"/>
        <path id="Path_9" data-name="Path 9" d="M26.2,20,28.133,8h7.734L37.8,20" transform="translate(-0.345)" fill="#f283a5"/>
        <path id="Path_10" data-name="Path 10" d="M3,20,10.8,8H19L14.6,20" fill="#f283a5"/>
        <path id="Path_11" data-name="Path 11" d="M49.4,20,44.533,8H53.2L61,20" transform="translate(-0.689)" fill="#f283a5"/>
        <path id="Path_12" data-name="Path 12" d="M14.6,20,19,8h9.133L26.2,20" transform="translate(-0.187)" fill="#fbd"/>
        <path id="Path_13" data-name="Path 13" d="M49.4,20,44.533,8H35.867L37.8,20" transform="translate(-0.502)" fill="#fbd"/>
        <path id="Path_14" data-name="Path 14" d="M43.688,35.191a5.314,5.314,0,0,0-5.943-4.121,5.1,5.1,0,0,0-2.5,1.227,1.716,1.716,0,0,1-1.144.448H29.35a1.741,1.741,0,0,1-1.161-.448,4.921,4.921,0,0,0-1.619-.976,5.131,5.131,0,0,0-6.632,3.228c-.05.143-.094.289-.132.436-1.468,5.688-.863,11.816-.259,15.529a1.733,1.733,0,0,0,2,1.453,1.712,1.712,0,0,0,1.021-.611,45.994,45.994,0,0,0,3.652-5.232,1.714,1.714,0,0,1,1.468-.838h8.067a1.713,1.713,0,0,1,1.459.838,46.042,46.042,0,0,0,3.652,5.236,1.682,1.682,0,0,0,2.432.219,1.811,1.811,0,0,0,.589-1.057A39.4,39.4,0,0,0,43.688,35.191Z" transform="translate(-0.339 -0.246)" fill="#faefde"/>
        <path id="Path_15" data-name="Path 15" d="M42.612,52.863c-.08,0-.16,0-.241-.011a2.719,2.719,0,0,1-1.875-.988,46.977,46.977,0,0,1-3.782-5.316A1.212,1.212,0,0,0,36,46H28a1.212,1.212,0,0,0-.724.553A46.773,46.773,0,0,1,23.5,51.858a2.755,2.755,0,0,1-1.629.956,2.709,2.709,0,0,1-2.047-.451,2.765,2.765,0,0,1-1.144-1.806c-.688-4.138-1.2-10.239.28-15.853.047-.178.1-.35.161-.519a6.257,6.257,0,0,1,3.253-3.6,6.126,6.126,0,0,1,4.752-.206,5.968,5.968,0,0,1,1.958,1.16,1.628,1.628,0,0,1,.363.459h5.1a1.584,1.584,0,0,1,.359-.459,6.212,6.212,0,0,1,3.027-1.456A6.356,6.356,0,0,1,45.1,34.922c1.508,5.958.783,12.357.217,15.643a2.8,2.8,0,0,1-.932,1.641A2.7,2.7,0,0,1,42.612,52.863ZM36,44a3.073,3.073,0,0,1,2.418,1.5,45.041,45.041,0,0,0,3.621,5.093.743.743,0,0,0,.506.268.718.718,0,0,0,.538-.175.8.8,0,0,0,.262-.464c.538-3.125,1.231-9.212-.188-14.812a.029.029,0,0,0,0-.009,4.36,4.36,0,0,0-4.9-3.342,4.2,4.2,0,0,0-1.957.919A1.31,1.31,0,0,1,35,34H29a1.3,1.3,0,0,1-1.3-1.006.1.1,0,0,0,0-.012,4,4,0,0,0-1.25-.722,4.153,4.153,0,0,0-3.221.136A4.275,4.275,0,0,0,21,34.86c-.043.12-.079.237-.11.355-1.386,5.267-.9,11.067-.242,15.005a.776.776,0,0,0,.318.5.726.726,0,0,0,.545.121.742.742,0,0,0,.441-.261A44.87,44.87,0,0,0,25.573,45.5,3.078,3.078,0,0,1,28,44h8ZM27.759,33.038a0,0,0,0,0,0,0A0,0,0,0,1,27.759,33.038Z" transform="translate(-0.345 -0.246)" fill="#8d6c9f"/>
        <path id="Path_16" data-name="Path 16" d="M32,43a1,1,0,0,1-1-1V38.414l-.293.293a1,1,0,0,1-1.414-1.414l2-2A1,1,0,0,1,33,36v6A1,1,0,0,1,32,43Z" transform="translate(-0.332 -0.157)" fill="#8d6c9f"/>
        <path id="Path_17" data-name="Path 17" d="M34,39a1,1,0,0,1-.707-.293l-2-2a1,1,0,1,1,1.414-1.414l2,2A1,1,0,0,1,34,39Z" transform="translate(-0.357 -0.143)" fill="#8d6c9f"/>
        <path id="Path_18" data-name="Path 18" d="M38.554,11.168a.945.945,0,0,0-1.073-.92l-1.994.152a1,1,0,1,0,.152,1.992l1.994-.152A.945.945,0,0,0,38.554,11.168Zm.38,4.979a.945.945,0,0,0-1.073-.92l-1.994.152a1,1,0,1,0,.152,1.992l1.994-.152A.944.944,0,0,0,38.934,16.147Z" transform="translate(-0.404)" fill="#8d6c9f"/>
        <path id="Path_19" data-name="Path 19" d="M16.288,15.913A1,1,0,0,1,15.34,14.6l1-3a1,1,0,1,1,1.9.633l-1,3A1,1,0,0,1,16.288,15.913Z" transform="translate(-0.161)" fill="#8d6c9f"/>
        <path id="Path_20" data-name="Path 20" d="M54.738,28a7.3,7.3,0,0,1-6.124-3.822A5.942,5.942,0,0,1,43.2,28a6.4,6.4,0,0,1-5.664-3.84A6.863,6.863,0,0,1,31.655,28a6.859,6.859,0,0,1-5.876-3.84A6.4,6.4,0,0,1,20.114,28,5.941,5.941,0,0,1,14.7,24.178,7.3,7.3,0,0,1,8.573,28c-2.8,0-5.264-1.988-6.289-5.064a5.936,5.936,0,0,1,.7-5.046L9.735,7.453A.986.986,0,0,1,10.563,7H52.748a.985.985,0,0,1,.827.453l6.75,10.437h0a5.934,5.934,0,0,1,.7,5.048C60,26.012,57.534,28,54.738,28ZM48.46,19a.994.994,0,0,1,.989,1c0,3.434,2.793,6,5.29,6,1.934,0,3.667-1.453,4.417-3.7a3.9,3.9,0,0,0-.483-3.312h0L52.213,9H11.1L4.64,18.984A3.9,3.9,0,0,0,4.158,22.3c.748,2.25,2.481,3.7,4.415,3.7,2.5,0,5.29-2.566,5.29-6a.989.989,0,1,1,1.977,0c0,2.981,1.469,6,4.275,6,2.592,0,4.621-2.636,4.621-6a.989.989,0,1,1,1.977,0c0,3.252,2.264,6,4.943,6S36.6,23.252,36.6,20a.989.989,0,1,1,1.977,0c0,3.364,2.03,6,4.621,6,2.807,0,4.275-3.018,4.275-6A.994.994,0,0,1,48.46,19Z" fill="#8d6c9f"/>
        <path id="Path_21" data-name="Path 21" d="M26,21a.946.946,0,0,1-.166-.014,1,1,0,0,1-.822-1.151l2-12a1,1,0,1,1,1.973.329l-2,12A1,1,0,0,1,26,21Z" transform="translate(-0.283)" fill="#8d6c9f"/>
        <g id="Group_1" data-name="Group 1" transform="translate(43.464 7)">
          <path id="Path_22" data-name="Path 22" d="M49,21a1,1,0,0,1-.948-.684l-4-12a1,1,0,1,1,1.9-.633l4,12a1,1,0,0,1-.632,1.265A1.011,1.011,0,0,1,49,21Z" transform="translate(-44 -7)" fill="#8d6c9f"/>
        </g>
      </g>
      <text id="games" transform="translate(115 88)" fill="#f7a1c8" font-size="19" font-family="YuGothicUI-Bold, Yu Gothic UI" font-weight="700"><tspan x="0" y="0">GAMES</tspan></text>
    </g>
  </g>
</svg>
